<svg width="48" height="48" viewBox="0 0 48 48" fill="none" xmlns="http://www.w3.org/2000/svg">
<path d="M10 12.9061V20.5424H17.6364" stroke="#F9D671" stroke-width="3" stroke-linecap="round" stroke-linejoin="round"/>
<path d="M38 37.0848V29.4485H30.3636" stroke="#F9D671" stroke-width="3" stroke-linecap="round" stroke-linejoin="round"/>
<path d="M34.8054 18.6333C34.16 16.8092 33.0629 15.1784 31.6167 13.893C30.1704 12.6075 28.4221 11.7094 26.5349 11.2824C24.6477 10.8554 22.683 10.9134 20.8243 11.451C18.9656 11.9887 17.2733 12.9884 15.9055 14.357L10 19.9061M38 30.266L32.0945 35.8151C30.7267 37.1837 29.0344 38.1834 27.1757 38.7211C25.317 39.2587 23.3523 39.3167 21.4651 38.8897C19.5779 38.4627 17.8296 37.5646 16.3833 36.2792C14.9371 34.9937 13.84 33.3629 13.1946 31.5388" stroke="#F9D671" stroke-width="3" stroke-linecap="round" stroke-linejoin="round"/>
</svg>
